<svg width="512" height="512" version="1.1" xmlns="http://www.w3.org/2000/svg">
	<path d="m163.513 79.9833c-10.8705-0.0854-21.7609 1.10513-32.1366 3.45504-12.529 2.79496-24.368 9.62401-33.9217 18.1933-13.245 11.8681-22.5493 27.9262-30.1795 43.9883-33.3176 70.1293-65.6483 223.477-65.6483 223.477s-2.89238 18.6328-0.96484 27.6385c1.76233 8.05434 5.34272 16.1984 11.0703 22.1366 6.34713 6.5812 24.0546 13.1484 24.0546 13.1484h440.408s17.713-6.56725 24.0546-13.1484c5.72751-5.93402 9.30792-14.0767 11.0702-22.1366 1.9689-9.00431-0.96483-27.6385-0.96483-27.6385s-32.3306-153.348-65.6483-223.477c-7.62756-16.0619-16.9407-32.1186-30.1815-43.9883-9.55511-8.56381-21.3963-15.3998-33.9198-18.1933-23.7611-5.30065-50.229-4.88755-72.9314 3.89646-11.5377 4.47472-21.0408 13.8256-28.744 23.5155-10.7667 13.5479-22.9686 46.5644-22.9686 46.5644s-12.1979-33.0178-22.9686-46.5644c-7.71018-9.69276-17.2028-19.0436-28.746-23.5155-12.7583-4.94089-26.721-7.23978-40.7167-7.3515zm9.1445 136.208a52.3334 52.3334 0 0 1 52.3671 52.2945 52.3334 52.3334 0 0 1-52.3671 52.3671 52.3334 52.3334 0 0 1-52.2945-52.3671 52.3334 52.3334 0 0 1 52.2945-52.2945zm163.714 0a52.3334 52.3334 0 0 1 52.3648 52.2945 52.3334 52.3334 0 0 1-52.3648 52.3671 52.3334 52.3334 0 0 1-52.2945-52.3671 52.3334 52.3334 0 0 1 52.2945-52.2945zm-109.996 117.824 56.2789 0.35527-28.3886 69.1561z" fill="#8f8e8e"/>
</svg>
