<svg width="512" height="45.182" version="1.1" xmlns="http://www.w3.org/2000/svg">
	<path d="m451.996 0c-2.04746-2.96059e-16 -3.70096 0.788308-4.96093 2.36328-1.22061 1.53559-1.87048 3.62169-1.94922 6.25977h4.66601c0.03938-1.06311 0.31431-1.87064 0.82617-2.42188 0.51187-0.590615 1.18291-0.884766 2.00977-0.884766 0.39375 0 0.78595 0.11727 1.17969 0.353516 0.43312 0.236249 0.96571 0.590009 1.5957 1.0625 0.98436 0.708736 1.87072 1.27977 2.6582 1.71289 0.82686 0.393743 1.77088 0.591797 2.83399 0.591797 2.04747 0 3.68174-0.769088 4.90234-2.30469 1.25998-1.5356 1.92907-3.58325 2.00781-6.14258h-4.66601c-0.03937 0.984359-0.33353 1.77267-0.88477 2.36328-0.51186 0.55124-1.16173 0.826172-1.94922 0.826172-0.39374 0-0.80712-0.11727-1.24023-0.353516-0.39375-0.236249-0.90712-0.590009-1.53711-1.0625-1.02373-0.748111-1.94853-1.31915-2.77539-1.71289-0.78749-0.433117-1.69307-0.650391-2.7168-0.650391zm-364.762 0.886719v43.8223h8.79883v-3.66211c2.28371 2.7562 5.61188 4.13477 9.98242 4.13477 2.95308 0 5.62942-0.669086 8.03126-2.00781 2.4412-1.3781 4.35041-3.28731 5.72851-5.72852 1.3781-2.48058 2.06836-5.35498 2.06836-8.62305 0-3.26807-0.69026-6.12325-2.06836-8.56445-1.3781-2.48058-3.28731-4.38979-5.72851-5.72852-2.40184-1.3781-5.07818-2.06641-8.03126-2.06641-4.05555 0-7.24527 1.27856-9.56835 3.83789v-15.4141h-9.21289zm78.0195 0v43.8223h9.21289v-43.8223h-9.21289zm17.7773 0v43.8223h9.21289v-43.8223h-9.21289zm241.916 0v15.4141c-2.28371-2.55933-5.45422-3.83789-9.50977-3.83789-2.99245 0-5.70918 0.669085-8.15039 2.00781-2.40183 1.33873-4.29182 3.24794-5.66992 5.72852s-2.06641 5.35498-2.06641 8.62305c0 3.26807 0.68831 6.14247 2.06641 8.62305 1.3781 2.48058 3.26809 4.38979 5.66992 5.72852 2.44121 1.33873 5.15794 2.00781 8.15039 2.00781 4.33117 0 7.63817-1.37857 9.92188-4.13477v3.66211h8.80078v-43.8223h-9.21289zm-424.947 2.48047v41.3418h9.56836v-41.3418h-9.56836zm254.613 0v41.3418h21.3809c5.39429 0 9.48958-0.963238 12.2852-2.89258 2.83495-1.96871 4.25195-4.76428 4.25195-8.38672 0-2.55933-0.66909-4.70699-2.00781-6.43945-1.33873-1.77184-3.19028-3.03118-5.55274-3.7793 1.73248-0.905607 3.07065-2.14573 4.01563-3.7207 0.98436-1.57497 1.47656-3.36691 1.47656-5.375 0-3.30744-1.35739-5.92613-4.07422-7.85547-2.67742-1.92934-6.53626-2.89258-11.5762-2.89258h-20.1992zm9.50977 7.20508h9.50781c2.36245 0 4.15439 0.413374 5.375 1.24023 1.2206 0.787487 1.83008 1.98917 1.83008 3.60352 0 1.61435-0.60948 2.8333-1.83008 3.66016-1.22061 0.82686-3.01255 1.24023-5.375 1.24023h-9.50781v-9.74414zm115.818 1.88867c-2.16559 0-4.15363 0.374933-5.96485 1.12305-1.81122 0.70874-3.32823 1.73159-4.54883 3.07031v-3.7207h-8.80078v31.7754h9.21485v-15.709c0-2.83495 0.6883-4.96143 2.0664-6.37891 1.3781-1.45685 3.22965-2.18555 5.55274-2.18555 2.08683 0 3.68072 0.630645 4.7832 1.89062 1.10248 1.22061 1.6543 3.08942 1.6543 5.60938v16.7734h9.21289v-18.1895c0-4.64614-1.2209-8.15121-3.66211-10.5137-2.40183-2.36246-5.57039-3.54297-9.50781-3.54297v-0.001953zm-316.332 0.001953c-2.55933 0-5.06075 0.334546-7.50195 1.00391-2.40183 0.669367-4.4687 1.61338-6.20117 2.83398l3.30859 6.4375c1.14185-0.905608 2.52042-1.61313 4.13476-2.125 1.65372-0.55124 3.32644-0.828125 5.01953-0.828125 2.44121 0 4.27159 0.551817 5.49219 1.6543 1.2206 1.06311 1.83203 2.59934 1.83203 4.60742h-7.32422c-4.6462 0-8.0916 0.845969-10.3359 2.53906-2.20496 1.69309-3.30664 4.01568-3.30664 6.96875 0 1.85059 0.471029 3.50409 1.41602 4.96094s2.30433 2.59892 4.07617 3.42578c1.81122 0.82686 3.9377 1.24024 6.37891 1.24024 4.72492 0 7.95308-1.47662 9.68555-4.42969v3.95703h8.62305v-18.1309c0-4.72492-1.31895-8.24919-3.95703-10.5723-2.63808-2.36246-6.41806-3.54297-11.3398-3.54297zm78.9648 0c-3.18932 0-6.08294 0.707526-8.68164 2.125-2.55933 1.3781-4.58777 3.3277-6.08399 5.84766-1.45685 2.48058-2.18554 5.27615-2.18554 8.38672 0 3.14995 0.74791 5.96473 2.24414 8.44531 1.49622 2.48058 3.6227 4.43018 6.3789 5.84766 2.7562 1.3781 5.9267 2.06641 9.50977 2.06641 5.74863 0 10.1189-1.71311 13.1113-5.13867l-4.90235-5.31445c-1.10248 1.06311-2.30417 1.84946-3.60351 2.36133-1.25998 0.472492-2.71542 0.708984-4.36914 0.708984-2.40184 0-4.41105-0.571037-6.02539-1.71289-1.61435-1.14185-2.6372-2.6973-3.07032-4.66602h24.0371c0.11813-1.5356 0.17774-2.36235 0.17774-2.48047 0-3.30744-0.7287-6.20106-2.18555-8.68164-1.41748-2.51995-3.3863-4.44838-5.90625-5.78711s-5.33474-2.00781-8.44531-2.00781zm71.0508 0c-2.55933 0-5.0588 0.334546-7.5 1.00391-2.40183 0.669367-4.47065 1.61338-6.20312 2.83398l3.30859 6.4375c1.14186-0.905608 2.52042-1.61313 4.13476-2.125 1.65372-0.55124 3.32644-0.828125 5.01954-0.828125 2.4412 0 4.27158 0.551817 5.49218 1.6543 1.22061 1.06311 1.83203 2.59934 1.83203 4.60742h-7.32421c-4.6462 0-8.09161 0.845969-10.3359 2.53906-2.20496 1.69309-3.30664 4.01568-3.30664 6.96875 0 1.85059 0.47103 3.50409 1.41601 4.96094s2.30433 2.59892 4.07618 3.42578c1.81121 0.82686 3.9377 1.24024 6.3789 1.24024 4.72492 0 7.95308-1.47662 9.68555-4.42969v3.95703h8.62305v-18.1309c0-4.72492-1.31896-8.24919-3.95704-10.5723-2.63808-2.36246-6.41805-3.54297-11.3398-3.54297zm105.248 0c-2.44121 0-4.60808 0.3922-6.49805 1.17969-1.85059 0.78748-3.32721 1.94878-4.42969 3.48438v-4.19336h-8.79883v31.7754h9.2129v-15.002c0-2.95307 0.74791-5.15643 2.24414-6.61328 1.49622-1.49623 3.56309-2.24414 6.20117-2.24414 0.35436 0 1.04462 0.038439 2.06836 0.117188v-8.50391zm18.1309 0c-2.55933 0-5.0588 0.334546-7.5 1.00391-2.40184 0.669367-4.46871 1.61338-6.20118 2.83398l3.30665 6.4375c1.14185-0.905608 2.52041-1.61313 4.13476-2.125 1.65372-0.55124 3.32644-0.828125 5.01953-0.828125 2.44121 0 4.27158 0.551817 5.49219 1.6543 1.2206 1.06311 1.83203 2.59934 1.83203 4.60742h-7.32422c-4.6462 0-8.0916 0.845969-10.3359 2.53906-2.20496 1.69309-3.30664 4.01568-3.30664 6.96875 0 1.85059 0.47104 3.50409 1.41602 4.96094 0.94499 1.45685 2.30433 2.59892 4.07617 3.42578 1.81122 0.82686 3.9377 1.24024 6.37891 1.24024 4.72491 0 7.95308-1.47662 9.68554-4.42969v3.95703h8.62305v-18.1309c0-4.72492-1.31896-8.24919-3.95703-10.5723-2.63808-2.36246-6.41806-3.54297-11.3398-3.54297zm118.477 0c-2.55933 0-5.05879 0.334546-7.5 1.00391-2.40183 0.669367-4.46871 1.61338-6.20117 2.83398l3.30664 6.4375c1.14185-0.905608 2.52042-1.61313 4.13476-2.125 1.65372-0.55124 3.32644-0.828125 5.01953-0.828125 2.44121 0 4.27354 0.551817 5.49415 1.6543 1.22059 1.06311 1.83007 2.59934 1.83007 4.60742h-7.32422c-4.6462 0-8.0916 0.845969-10.3359 2.53906-2.20496 1.69309-3.30664 4.01568-3.30664 6.96875 0 1.85059 0.47298 3.50409 1.41796 4.96094 0.94499 1.45685 2.30238 2.59892 4.07422 3.42578 1.81122 0.82686 3.9377 1.24024 6.37891 1.24024 4.72491 0 7.95307-1.47662 9.68555-4.42969v3.95703h8.62304v-18.1309c0-4.72492-1.31895-8.24919-3.95703-10.5723-2.63808-2.36246-6.41805-3.54297-11.3398-3.54297zm39.0976 0c-3.34681 0-6.3577 0.707526-9.03515 2.125-2.63807 1.3781-4.70495 3.30848-6.20117 5.78906s-2.24414 5.29537-2.24414 8.44531c0 3.14995 0.74792 5.96473 2.24414 8.44531s3.5631 4.43018 6.20117 5.84766c2.67745 1.3781 5.68834 2.06641 9.03515 2.06641 3.34682 0 6.34045-0.688307 8.97852-2.06641 2.63808-1.41747 4.70495-3.36708 6.20117-5.84766 1.49623-2.48058 2.24414-5.29537 2.24414-8.44531 0-3.14995-0.74791-5.96473-2.24414-8.44531-1.49622-2.48058-3.56309-4.41096-6.20117-5.78906-2.63807-1.41747-5.6317-2.125-8.97852-2.125zm-477.627 0.470703v7.08789h15.7695l-16.1836 19.1367v5.55078h28.3496v-7.08594h-16.7148l16.1836-19.1367v-5.55273h-27.4043zm125.682 6.49805c2.04746 0 3.77979 0.609478 5.19727 1.83008 1.41748 1.18123 2.28461 2.77707 2.59961 4.78516h-15.6524c0.315-2.04747 1.18214-3.66252 2.59961-4.84375 1.41748-1.18123 3.16902-1.77148 5.25586-1.77148zm-38.2129 0.589843c2.36246 0 4.29284 0.807529 5.78906 2.42188 1.5356 1.57497 2.30274 3.70145 2.30274 6.37891 0 2.67745-0.76714 4.82315-2.30274 6.4375-1.49622 1.57497-3.4266 2.36328-5.78906 2.36328s-4.3101-0.788308-5.8457-2.36328c-1.49623-1.61435-2.24609-3.76005-2.24609-6.4375 0-2.67745 0.749867-4.80393 2.24609-6.37891 1.5356-1.61435 3.48324-2.42188 5.8457-2.42188zm312.611 0c2.32308 0 4.25346 0.807529 5.78906 2.42188 1.5356 1.57497 2.30274 3.70145 2.30274 6.37891 0 2.67745-0.76714 4.82315-2.30274 6.4375-1.5356 1.57497-3.46598 2.36328-5.78906 2.36328-2.36246 0-4.31011-0.788308-5.8457-2.36328-1.5356-1.61435-2.30469-3.76005-2.30469-6.4375 0-2.67745 0.76909-4.80393 2.30469-6.37891 1.53559-1.61435 3.48324-2.42188 5.8457-2.42188zm77.5469 0c2.36247 0 4.29284 0.807529 5.78907 2.42188 1.53559 1.57497 2.30273 3.70145 2.30273 6.37891 0 2.67745-0.76714 4.82315-2.30273 6.4375-1.49623 1.57497-3.42661 2.36328-5.78907 2.36328-2.36245 0-4.3101-0.788308-5.8457-2.36328-1.53559-1.61435-2.30469-3.76005-2.30469-6.4375 0-2.67745 0.7691-4.80393 2.30469-6.37891 1.5356-1.61435 3.48325-2.42188 5.8457-2.42188zm-230.455 7.26562h11.1621c5.07928 0 7.61914 1.71115 7.61914 5.13672 0 1.73247-0.64987 3.01298-1.94922 3.83984-1.25998 0.82686-3.14997 1.24023-5.66992 1.24023h-11.1621v-10.2168zm-200.75 4.13281h6.32031v3.25c-0.511866 1.41747-1.37901 2.49993-2.59961 3.24805-1.2206 0.70874-2.61839 1.0625-4.19336 1.0625-1.61434 0-2.89486-0.334547-3.83984-1.00391-0.905607-0.70874-1.35742-1.65471-1.35742-2.83594 0-2.48058 1.88999-3.7207 5.66992-3.7207zm150.016 0h6.32031v3.25c-0.51186 1.41747-1.379 2.49993-2.5996 3.24805-1.22061 0.70874-2.61839 1.0625-4.19336 1.0625-1.61435 0-2.89292-0.334547-3.8379-1.00391-0.90561-0.70874-1.35937-1.65471-1.35937-2.83594 0-2.48058 1.88999-3.7207 5.66992-3.7207zm123.379 0h6.32031v3.25c-0.51187 1.41747-1.37901 2.49993-2.59961 3.24805-1.22061 0.70874-2.61838 1.0625-4.19336 1.0625-1.61434 0-2.8929-0.334547-3.83789-1.00391-0.90561-0.70874-1.35937-1.65471-1.35937-2.83594 0-2.48058 1.88998-3.7207 5.66992-3.7207zm118.477 0h6.32031v3.25c-0.51186 1.41747-1.37901 2.49993-2.59961 3.24805-1.2206 0.70874-2.61839 1.0625-4.19336 1.0625-1.61434 0-2.8929-0.334547-3.83789-1.00391-0.9056-0.70874-1.35937-1.65471-1.35937-2.83594 0-2.48058 1.88999-3.7207 5.66992-3.7207z" fill="#ffb187"/>
</svg>
